name C:\Users\u0101727\Documents\MyRepositories\upper-imu-dc\Results\main_tracking\Case_44\FLX01_angularVelocities_groundFrame.mot
datacolumns 4
datarows 70
range 2.01000000 2.70000000
endheader 
time	radius_imu_x	radius_imu_y	radius_imu_z	
          2.01000000	         -0.73684433	          0.46567049	          0.93843986	
          2.02000000	         -0.73696295	          0.43537041	          0.94023265	
          2.03000000	         -0.73676324	          0.40494794	          0.94152635	
          2.04000000	         -0.73615820	          0.37452016	          0.94231033	
          2.05000000	         -0.73508092	          0.34419161	          0.94257936	
          2.06000000	         -0.73348756	          0.31405231	          0.94233332	
          2.07000000	         -0.73136029	          0.28417546	          0.94157688	
          2.08000000	         -0.72870915	          0.25461486	          0.94031925	
          2.09000000	         -0.72557172	          0.22540272	          0.93857396	
          2.10000000	         -0.72200981	          0.19654896	          0.93635830	
          2.11000000	         -0.71810294	          0.16804287	          0.93369253	
          2.12000000	         -0.71393897	          0.13985749	          0.93059885	
          2.13000000	         -0.70960300	          0.11195658	          0.92710048	
          2.14000000	         -0.70516650	          0.08430291	          0.92322125	
          2.15000000	         -0.70067896	          0.05686616	          0.91898575	
          2.16000000	         -0.69616406	          0.02962844	          0.91441972	
          2.17000000	         -0.69162066	          0.00258708	          0.90955021	
          2.18000000	         -0.68702715	         -0.02424484	          0.90440508	
          2.19000000	         -0.68234725	         -0.05083910	          0.89901199	
          2.20000000	         -0.67753555	         -0.07715328	          0.89339710	
          2.21000000	         -0.67254230	         -0.10313200	          0.88758378	
          2.22000000	         -0.66731768	         -0.12870900	          0.88159191	
          2.23000000	         -0.66181615	         -0.15381095	          0.87543776	
          2.24000000	         -0.65600058	         -0.17836269	          0.86913456	
          2.25000000	         -0.64984523	         -0.20229301	          0.86269320	
          2.26000000	         -0.64333671	         -0.22553946	          0.85612271	
          2.27000000	         -0.63647277	         -0.24805110	          0.84943029	
          2.28000000	         -0.62925935	         -0.26978864	          0.84262097	
          2.29000000	         -0.62170674	         -0.29072199	          0.83569740	
          2.30000000	         -0.61382557	         -0.31082594	          0.82866002	
          2.31000000	         -0.60562363	         -0.33007488	          0.82150787	
          2.32000000	         -0.59710389	         -0.34843779	          0.81423993	
          2.33000000	         -0.58826440	         -0.36587467	          0.80685670	
          2.34000000	         -0.57910018	         -0.38233579	          0.79936186	
          2.35000000	         -0.56960694	         -0.39776420	          0.79176372	
          2.36000000	         -0.55978530	         -0.41210100	          0.78407598	
          2.37000000	         -0.54964457	         -0.42529183	          0.77631788	
          2.38000000	         -0.53920539	         -0.43729307	          0.76851370	
          2.39000000	         -0.52850131	         -0.44807657	          0.76069176	
          2.40000000	         -0.51757897	         -0.45763203	          0.75288326	
          2.41000000	         -0.50649693	         -0.46596698	          0.74512090	
          2.42000000	         -0.49532326	         -0.47310484	          0.73743761	
          2.43000000	         -0.48413212	         -0.47908204	          0.72986551	
          2.44000000	         -0.47299975	         -0.48394480	          0.72243503	
          2.45000000	         -0.46200006	         -0.48774566	          0.71517452	
          2.46000000	         -0.45120041	         -0.49054015	          0.70811002	
          2.47000000	         -0.44065782	         -0.49238370	          0.70126527	
          2.48000000	         -0.43041616	         -0.49332927	          0.69466184	
          2.49000000	         -0.42050472	         -0.49342641	          0.68831898	
          2.50000000	         -0.41093848	         -0.49272200	          0.68225344	
          2.51000000	         -0.40171984	         -0.49126240	          0.67647917	
          2.52000000	         -0.39284157	         -0.48909610	          0.67100682	
          2.53000000	         -0.38429023	         -0.48627578	          0.66584318	
          2.54000000	         -0.37604966	         -0.48285950	          0.66099046	
          2.55000000	         -0.36810397	         -0.47891081	          0.65644560	
          2.56000000	         -0.36043960	         -0.47449780	          0.65219982	
          2.57000000	         -0.35304623	         -0.46969149	          0.64823850	
          2.58000000	         -0.34591674	         -0.46456385	          0.64454170	
          2.59000000	         -0.33904622	         -0.45918574	          0.64108516	
          2.60000000	         -0.33243052	         -0.45362490	          0.63784196	
          2.61000000	         -0.32606450	         -0.44794391	          0.63478436	
          2.62000000	         -0.31994041	         -0.44219824	          0.63188560	
          2.63000000	         -0.31404660	         -0.43643448	          0.62912115	
          2.64000000	         -0.30836664	         -0.43068924	          0.62646910	
          2.65000000	         -0.30287889	         -0.42498880	          0.62390993	
          2.66000000	         -0.29755651	         -0.41934985	          0.62142561	
          2.67000000	         -0.29236780	         -0.41378118	          0.61899862	
          2.68000000	         -0.28727685	         -0.40828564	          0.61661108	
          2.69000000	         -0.28224463	         -0.40286198	          0.61424429	
          2.70000000	         -0.27723045	         -0.39750635	          0.61187860	
